#!OML:ASF F:\VICON\USERDATA\INSTALL\Justin_Nancy\Justin_Nancy.ASF
:FULLY-SPECIFIED
:DEGREES
1
root 14.6349 17.1699 -33.8686 7.86955 -8.92 13.471
lowerback 10.175 -1.52067 -6.31318
upperback 1.82701 -2.69482 0.0556935
thorax -3.4982 -1.27016 3.95491
lowerneck -21.7693 -1.12852 -9.71511
upperneck 10.3279 0.863067 2.81636
head 6.61406 0.265848 2.57167
rclavicle -5.1684e-014 -1.27222e-014
rhumerus -64.7263 6.53502 -84.9598
rradius 92.0791
rwrist -12.5185
rhand -16.2973 34.6844
rfingers 7.12502
rthumb 9.91335 4.93785
lclavicle -5.1684e-014 -1.27222e-014
lhumerus -37.0345 -6.07586 93.7432
lradius 110.642
lwrist 29.9211
lhand -14.3115 5.62291
lfingers 7.12502
lthumb 11.8288 35.2688
rfemur -51.6294 1.24043 12.0931
rtibia 56.284
rfoot -6.71872 -3.64931
rtoes -8.81748
lfemur 9.12 -3.08655 -32.5553
ltibia 28.655
lfoot 31.3312 -13.394
ltoes -3.15338
2
root 14.5469 17.2105 -33.2566 7.77015 -8.92432 13.5022
lowerback 10.3369 -1.4063 -6.23641
upperback 1.2313 -2.5781 -0.130429
thorax -4.23922 -1.17419 3.72443
lowerneck -19.3114 -1.04254 -8.92477
upperneck 9.3343 0.554207 2.42871
head 5.92353 0.131771 2.26475
rclavicle -3.18055e-015 1.74931e-014
rhumerus -65.7654 5.70479 -85.0346
rradius 92.2291
rwrist -11.9674
rhand -16.5626 33.7801
rfingers 7.12502
rthumb 9.65735 4.02148
lclavicle -3.18055e-015 1.74931e-014
lhumerus -39.0803 -6.9612 93.7504
lradius 109.794
lwrist 29.1101
lhand -13.312 6.98462
lfingers 7.12502
lthumb 12.7925 36.5727
rfemur -50.6052 1.55666 12.1047
rtibia 51.8438
rfoot -5.90382 -3.0984
rtoes -8.80185
lfemur 8.77314 -3.84733 -32.4909
ltibia 31.1617
lfoot 31.5721 -17.6126
ltoes 0.220685
3
root 14.4565 17.2378 -32.652 7.65112 -8.64613 13.7645
lowerback 10.4214 -1.472 -6.47965
upperback 1.29778 -2.69729 -0.155066
thorax -4.19347 -1.23237 3.8522
lowerneck -19.5921 -0.996835 -8.8687
upperneck 9.36605 0.621821 2.48017
head 5.97425 0.171254 2.28101
rclavicle -5.32743e-014 9.54166e-015
rhumerus -65.1546 5.43099 -84.8493
rradius 92.16
rwrist -11.6013
rhand -18.212 32.1952
rfingers 7.12502
rthumb 8.06575 2.36913
lclavicle -5.32743e-014 9.54166e-015
lhumerus -39.6477 -7.28227 93.7594
lradius 108.488
lwrist 28.744
lhand -11.7949 5.5736
lfingers 7.12502
lthumb 14.2546 35.0644
rfemur -49.6968 1.45373 12.0428
rtibia 48.2994
rfoot -5.16083 -2.49322
rtoes -11.5397
lfemur 7.8899 -4.66222 -32.5882
ltibia 34.7108
lfoot 31.1033 -16.3476
ltoes 7.59664
4
root 14.365 17.2479 -32.0515 7.38007 -8.44562 13.9781
lowerback 10.6314 -1.52072 -6.73001
upperback 1.44731 -2.8009 -0.1722
thorax -4.13013 -1.28554 3.99314
lowerneck -19.9487 -0.954252 -8.89809
upperneck 9.78367 0.711652 2.57685
head 6.16012 0.212831 2.3321
rclavicle 9.93923e-015 -1.59028e-015
rhumerus -64.3289 5.36218 -84.7718
rradius 91.9312
rwrist -11.3014
rhand -19.8388 31.2821
rfingers 7.12502
rthumb 6.49542 1.40171
lclavicle 9.93923e-015 -1.59028e-015
lhumerus -40.5824 -7.26182 93.8082
lradius 107.624
lwrist 28.7126
lhand -14.3627 6.06476
lfingers 7.12502
lthumb 11.7793 35.7135
rfemur -48.3557 1.35176 12.1107
rtibia 44.8652
rfoot -3.8679 -1.98248
rtoes -14.7947
lfemur 7.01751 -4.8951 -32.4996
ltibia 38.2723
lfoot 25.9223 -12.729
ltoes -4.14624
5
root 14.2729 17.2441 -31.4636 6.99485 -7.85017 14.1651
lowerback 11.1969 -1.65252 -6.88719
upperback 1.57848 -3.03098 -0.146386
thorax -4.26954 -1.39387 4.16086
lowerneck -19.9958 -1.16897 -8.9954
upperneck 9.38524 0.459986 2.51422
head 6.05371 0.0916043 2.29678
rclavicle -7.55382e-015 -3.18055e-015
rhumerus -63.3265 5.22044 -84.6014
rradius 91.4248
rwrist -10.9067
rhand -20.0518 31.3501
rfingers 7.12502
rthumb 6.2898 1.46348
lclavicle -7.55382e-015 -3.18055e-015
lhumerus -41.3677 -7.03432 93.8729
lradius 106.331
lwrist 28.6789
lhand -14.2769 5.03152
lfingers 7.12502
lthumb 11.8621 34.6755
rfemur -46.836 0.880905 12.3034
rtibia 42.1466
rfoot -2.84547 -1.40635
rtoes -16.4508
lfemur 5.95576 -4.90822 -32.1183
ltibia 42.2259
lfoot 23.9841 -10.5
ltoes -4.19046
6
root 14.1743 17.24 -30.8785 6.56529 -7.02972 14.2488
lowerback 11.8244 -1.8748 -6.98905
upperback 1.55005 -3.38395 -0.0596538
thorax -4.59394 -1.55116 4.39024
lowerneck -19.0851 -1.10325 -9.19918
upperneck 8.43014 0.471113 2.73474
head 5.60038 0.128339 2.39038
rclavicle -1.94809e-014 -4.29375e-014
rhumerus -62.6272 5.33139 -84.5067
rradius 90.923
rwrist -10.7634
rhand -20.0349 31.3996
rfingers 7.12502
rthumb 6.30614 1.51345
lclavicle -1.94809e-014 -4.29375e-014
lhumerus -42.2109 -6.5652 93.9313
lradius 104.801
lwrist 28.7774
lhand -15.2802 6.19951
lfingers 7.12502
lthumb 10.8945 35.8969
rfemur -45.2193 0.162462 12.7539
rtibia 40.2412
rfoot -2.08282 -0.542001
rtoes -14.2116
lfemur 4.59483 -4.89636 -31.5217
ltibia 46.3704
lfoot 22.0774 -8.95967
ltoes -13.1654
7
root 14.071 17.2389 -30.2825 6.05359 -6.77761 13.7497
lowerback 12.3906 -2.25319 -7.28799
upperback 1.05883 -3.95099 0.645996
thorax -5.28761 -1.77468 5.43845
lowerneck -15.9282 -0.410855 -10.1863
upperneck 6.87309 1.25086 2.93257
head 4.55409 0.521685 2.64969
rclavicle -8.46823e-014 1.27222e-014
rhumerus -62.8789 7.38195 -84.4004
rradius 90.4796
rwrist -10.894
rhand -20.3516 31.3197
rfingers 7.12502
rthumb 6.00039 1.42465
lclavicle -8.46823e-014 1.27222e-014
lhumerus -44.1191 -4.25092 94.2676
lradius 103.277
lwrist 28.8804
lhand -19.2326 9.7393
lfingers 7.12502
lthumb 7.08065 39.6009
rfemur -43.4904 -0.134049 13.9872
rtibia 39.2015
rfoot -1.60253 0.401378
rtoes -8.01237
lfemur 3.05221 -4.07757 -30.3158
ltibia 50.5803
lfoot 21.7147 -7.91857
ltoes -13.033
8
root 13.9712 17.2279 -29.6758 5.5393 -6.82376 13.0865
lowerback 12.5382 -1.54555 -5.93442
upperback 2.01577 -2.83964 0.018743
thorax -4.61194 -1.30948 3.82216
lowerneck -18.2635 -1.40526 -9.42415
upperneck 7.76079 -0.0616115 3.5123
head 5.2892 -0.0665026 2.61677
rclavicle -4.57205e-014 3.18055e-015
rhumerus -60.8566 4.7025 -84.6242
rradius 89.8972
rwrist -10.7068
rhand -20.5711 31.2627
rfingers 7.12502
rthumb 5.78841 1.36179
lclavicle -4.57205e-014 3.18055e-015
lhumerus -42.9817 -6.35978 93.545
lradius 101.074
lwrist 29.5775
lhand -16.36 7.23183
lfingers 7.12502
lthumb 9.85287 36.9813
rfemur -41.8058 -0.609641 15.6856
rtibia 39.3837
rfoot -1.78085 0.656306
rtoes 2.84373
lfemur 1.40749 -2.77831 -28.8259
ltibia 54.6321
lfoot 23.258 -6.90625
ltoes -0.159599
9
root 13.863 17.1946 -29.0897 5.14282 -6.60155 12.227
lowerback 13.1546 -1.2322 -5.05574
upperback 2.23567 -2.33851 -0.0222544
thorax -4.8111 -1.07409 3.22543
lowerneck -18.9322 -1.64089 -9.28244
upperneck 8.02439 -0.410214 4.03515
head 5.50211 -0.191858 2.73259
rclavicle 1.98785e-014 9.54166e-015
rhumerus -59.7397 3.7723 -84.8559
rradius 89.3787
rwrist -10.6812
rhand -20.6301 31.2188
rfingers 7.12502
rthumb 5.73146 1.31632
lclavicle 1.98785e-014 9.54166e-015
lhumerus -43.0929 -6.65202 93.1419
lradius 99.0673
lwrist 29.9683
lhand -15.4537 6.54995
lfingers 7.12502
lthumb 10.7271 36.2561
rfemur -40.2093 -1.56248 17.9065
rtibia 40.5138
rfoot -2.29726 -2.85448
rtoes 7.31512
lfemur -0.672781 -1.64618 -26.9027
ltibia 58.5608
lfoot 17.9127 -6.97628
ltoes -14.1577
10
root 13.757 17.1544 -28.5098 4.79965 -6.61293 11.3713
lowerback 13.6901 -0.925407 -4.34347
upperback 2.20507 -1.85669 0.0568113
thorax -5.2026 -0.836793 2.84477
lowerneck -18.6386 -1.8469 -9.29392
upperneck 8.07902 -0.75556 4.3744
head 5.49816 -0.337456 2.80956
rclavicle 4.49253e-014 6.36111e-015
rhumerus -59.0602 3.43747 -85.1067
rradius 89.0616
rwrist -10.6719
rhand -20.4968 31.113
rfingers 7.12502
rthumb 5.86021 1.21408
lclavicle 4.49253e-014 6.36111e-015
lhumerus -43.7913 -6.25733 92.8506
lradius 97.0717
lwrist 30.0439
lhand -15.4022 6.82334
lfingers 7.12502
lthumb 10.7768 36.5269
rfemur -38.3439 -2.46691 20.0404
rtibia 42.3604
rfoot -3.92499 -3.78543
rtoes 11.7344
lfemur -2.90778 -0.372543 -25.0424
ltibia 62.1591
lfoot 16.6101 -6.55784
ltoes -11.2889
11
root 13.6534 17.1185 -27.9271 4.40074 -6.80447 10.5833
lowerback 14.1627 -0.511551 -3.62623
upperback 2.17776 -1.22806 0.023889
thorax -5.55774 -0.533224 2.30486
lowerneck -17.8475 -2.22319 -8.86565
upperneck 7.78346 -1.42732 4.3137
head 5.3221 -0.658348 2.65333
rclavicle 1.59028e-015 1.59028e-015
rhumerus -58.3264 3.04647 -85.4372
rradius 88.8078
rwrist -10.506
rhand -19.5124 31.1187
rfingers 7.12502
rthumb 6.81055 1.24823
lclavicle 1.59028e-015 1.59028e-015
lhumerus -44.4081 -6.05613 92.4224
lradius 94.9394
lwrist 29.8736
lhand -16.4868 7.40206
lfingers 7.12502
lthumb 9.73052 37.1573
rfemur -36.4746 -2.66749 21.6207
rtibia 44.2305
rfoot -5.87127 -3.84245
rtoes 16.2592
lfemur -5.22203 1.0748 -23.3565
ltibia 65.4077
lfoot 15.694 -5.85013
ltoes -7.46765
